<svg id="texto" xmlns="http://www.w3.org/2000/svg" viewBox="0 0 51.86 51.24"><title>chavoso</title><path d="M770.74,1294h-0.07l-2-.18a0.82,0.82,0,0,1-.5-0.23l-4-3.93h0l-0.59-.57a0.78,0.78,0,0,1-.23-0.64l0.37-3.67a0.78,0.78,0,0,1,.23-0.48l21.75-21.16a14.5,14.5,0,0,1,3.4-16,15.61,15.61,0,0,1,21.63,0,14.6,14.6,0,0,1,0,21,15.5,15.5,0,0,1-16.46,3.31l-2.83,2.75a0.82,0.82,0,0,1-.57.23h-1.66v1.62a0.78,0.78,0,0,1-.24.56l-2.29,2.23a0.82,0.82,0,0,1-.57.23h-1.16v1.12a0.78,0.78,0,0,1-.24.56l-2.47,2.41a0.82,0.82,0,0,1-.57.23H778V1287a0.78,0.78,0,0,1-.24.56l-0.7.69a0.82,0.82,0,0,1-.57.23h-1.3v1.27a0.78,0.78,0,0,1-.24.56l-3.58,3.48A0.83,0.83,0,0,1,770.74,1294Zm-1.6-1.73,1.29,0.12,3.07-3v-1.73a0.8,0.8,0,0,1,.81-0.79h1.78l0.23-.22v-4a0.8,0.8,0,0,1,.81-0.79h4.16l2-1.94v-1.59a0.8,0.8,0,0,1,.81-0.79h1.63l1.82-1.77v-2.08a0.8,0.8,0,0,1,.81-0.79h2.14l3-2.9a0.83,0.83,0,0,1,.9-0.16,13.86,13.86,0,0,0,15.17-2.77,13,13,0,0,0,0-18.81,14,14,0,0,0-19.33,0,13,13,0,0,0-2.85,14.76,0.77,0.77,0,0,1-.17.88l-21.93,21.33-0.25,2.49,23-22.39a0.83,0.83,0,0,1,1.15,0,0.77,0.77,0,0,1,0,1.12l-23.32,22.69Zm35.73-36a3.6,3.6,0,0,1-2.52-1,3.41,3.41,0,0,1,0-4.91,3.64,3.64,0,0,1,5,0,3.41,3.41,0,0,1,0,4.91A3.6,3.6,0,0,1,804.88,1256.29Zm0-5.37a2,2,0,0,0-1.38.55,1.86,1.86,0,0,0,0,2.68,2,2,0,0,0,2.75,0,1.86,1.86,0,0,0,0-2.68A2,2,0,0,0,804.88,1250.92Z" transform="translate(-763.32 -1242.79)" style="fill:#000002"/></svg>