<?xml version="1.0" encoding="UTF-8" standalone="no"?>
<!-- Created with Inkscape (http://www.inkscape.org/) -->

<svg
   xmlns:dc="http://purl.org/dc/elements/1.1/"
   xmlns:cc="http://creativecommons.org/ns#"
   xmlns:rdf="http://www.w3.org/1999/02/22-rdf-syntax-ns#"
   xmlns:svg="http://www.w3.org/2000/svg"
   xmlns="http://www.w3.org/2000/svg"
   xmlns:sodipodi="http://sodipodi.sourceforge.net/DTD/sodipodi-0.dtd"
   xmlns:inkscape="http://www.inkscape.org/namespaces/inkscape"
   width="40"
   height="40"
   viewBox="0 0 39.999998 39.999999"
   id="svg3723"
   version="1.1"
   inkscape:version="0.91 r13725"
   sodipodi:docname="espiritualidade.svg">
  <defs
     id="defs3725" />
  <sodipodi:namedview
     id="base"
     pagecolor="#ffffff"
     bordercolor="#666666"
     borderopacity="1.0"
     inkscape:pageopacity="0.0"
     inkscape:pageshadow="2"
     inkscape:zoom="13.3"
     inkscape:cx="14.531874"
     inkscape:cy="20"
     inkscape:document-units="px"
     inkscape:current-layer="layer1"
     showgrid="false"
     fit-margin-top="2"
     fit-margin-left="2"
     fit-margin-right="2"
     fit-margin-bottom="2"
     units="px"
     inkscape:window-width="1366"
     inkscape:window-height="704"
     inkscape:window-x="0"
     inkscape:window-y="27"
     inkscape:window-maximized="1" />
  <metadata
     id="metadata3728">
    <rdf:RDF>
      <cc:Work
         rdf:about="">
        <dc:format>image/svg+xml</dc:format>
        <dc:type
           rdf:resource="http://purl.org/dc/dcmitype/StillImage" />
        <dc:title></dc:title>
      </cc:Work>
    </rdf:RDF>
  </metadata>
  <g
     inkscape:label="Camada 1"
     inkscape:groupmode="layer"
     id="layer1"
     transform="translate(-346.77663,-471.36562)">
    <g
       id="g3776"
       transform="matrix(0.63308948,0,0,0.63308948,348.77676,473.36562)">
      <g
         id="g3732">
        <g
           id="g3734">
          <circle
             id="circle3736"
             r="7.0929999"
             cy="7.0929999"
             cx="35.203999"
             style="fill:#010002" />
          <path
             id="path3738"
             d="M 47.824,25.536 C 46.942,23.901 44.906,23.292 43.27,24.174 l -4.606,2.484 c -0.605,-1.066 -1.115,-2.052 -1.637,-3.068 -0.601,-1.168 -2.967,-5.958 -4.01,-7.137 -2.107,-2.383 -6.625,-2.73 -8.743,0.017 -4.834,6.269 -9.049,14.271 -8.313,24.811 0,0 0.055,1.799 2.237,1.799 0.037,0 0.072,0 0.109,0 l 2.28,5.918 -8.016,-0.012 c -0.002,0 -0.004,0 -0.006,0 -2.167,0 -3.925,1.756 -3.928,3.922 -0.003,2.17 1.753,3.932 3.923,3.935 l 13.748,0.021 c 0.002,0 0.004,0 0.006,0 1.293,0 2.504,-0.637 3.238,-1.703 0.732,-1.066 0.895,-2.429 0.429,-3.639 l -3.275,-8.499 c 1.903,-0.157 1.514,-1.312 1.461,-1.963 -0.856,-5.629 0.326,-8.585 3.439,-13.319 0.779,1.5 1.659,3.092 2.925,5.047 0.982,1.517 2.2,2.385 4.784,1.154 l 7.147,-3.852 c 1.631,-0.882 2.242,-2.923 1.362,-4.554 z"
             style="fill:#010002"
             inkscape:connector-curvature="0" />
        </g>
      </g>
      <g
         id="g3740" />
      <g
         id="g3742" />
      <g
         id="g3744" />
      <g
         id="g3746" />
      <g
         id="g3748" />
      <g
         id="g3750" />
      <g
         id="g3752" />
      <g
         id="g3754" />
      <g
         id="g3756" />
      <g
         id="g3758" />
      <g
         id="g3760" />
      <g
         id="g3762" />
      <g
         id="g3764" />
      <g
         id="g3766" />
      <g
         id="g3768" />
    </g>
  </g>
</svg>
