<svg id="texto" xmlns="http://www.w3.org/2000/svg" viewBox="0 0 71.04 28.22"><title>evangelico</title><path d="M968.78,1021.22a37.82,37.82,0,0,0-8.17-12.42,37.77,37.77,0,0,0,8-12.59,1.18,1.18,0,0,0-.72-1.53,1.23,1.23,0,0,0-1.57.7,35.38,35.38,0,0,1-7.48,11.74,42,42,0,0,0-5.44-4.14,45.47,45.47,0,0,0-41.59-3.56,42.59,42.59,0,0,0-13.66,9,1.16,1.16,0,0,0,0,1.68A42.49,42.49,0,0,0,912,1018.9a45.24,45.24,0,0,0,17,3.14,44.75,44.75,0,0,0,24.49-7.34,41.89,41.89,0,0,0,5.35-4.2,35.42,35.42,0,0,1,7.62,11.58,1.22,1.22,0,0,0,1.14.75,1.25,1.25,0,0,0,.44-0.08A1.18,1.18,0,0,0,968.78,1021.22ZM929,1019.66a41.51,41.51,0,0,1-28.23-10.4,41.56,41.56,0,0,1,28.06-10.91,42,42,0,0,1,28.27,10.47A42,42,0,0,1,929,1019.66Z" transform="translate(-897.83 -994.61)"/></svg>