<svg id="texto" xmlns="http://www.w3.org/2000/svg" viewBox="0 0 63.06 58.41"><title>goodvibes</title><path id="_Caminho_composto_" data-name="&lt;Caminho composto&gt;" d="M907.21,813.63A1.39,1.39,0,0,1,905.8,815h-2.57a1.37,1.37,0,1,1,0-2.74h2.57A1.39,1.39,0,0,1,907.21,813.63Zm13.4,12a1.35,1.35,0,0,0,.36,1,1.43,1.43,0,0,0,1,.44h2.71a1.37,1.37,0,1,0,0-2.74h-1c1.09-3.42,4.77-6.33,9.7-7.52,4.93,1.19,8.61,4.1,9.7,7.52h-1a1.37,1.37,0,1,0,0,2.74h2.71a1.43,1.43,0,0,0,1-.44,1.35,1.35,0,0,0,.36-1,11.19,11.19,0,0,0-4-7.32,19.06,19.06,0,0,0-8.54-4.19,1.45,1.45,0,0,0-.63,0,19.06,19.06,0,0,0-8.54,4.19A11.19,11.19,0,0,0,920.6,825.64ZM952.83,796a1.42,1.42,0,0,0,1-.4l1.82-1.77a1.34,1.34,0,0,0,0-1.94,1.44,1.44,0,0,0-2,0l-1.82,1.77a1.34,1.34,0,0,0,0,1.94A1.42,1.42,0,0,0,952.83,796Zm-19.48-7.85a1.39,1.39,0,0,0,1.41-1.37v-2.5a1.41,1.41,0,0,0-2.81,0v2.5A1.39,1.39,0,0,0,933.35,788.19Zm-20.48,7.45a1.43,1.43,0,0,0,2,0,1.34,1.34,0,0,0,0-1.94L913,791.94a1.43,1.43,0,0,0-2,0,1.34,1.34,0,0,0,0,1.94ZM930.15,836a1.39,1.39,0,0,0-1.41,1.37v1.27H918.62a3.24,3.24,0,1,1,0-6.47h10.06a1.37,1.37,0,1,0,0-2.74H918.62a6,6,0,1,0,0,12h11.54a1.39,1.39,0,0,0,1.41-1.37v-2.64A1.39,1.39,0,0,0,930.15,836Zm33.32-23.73H960.9a1.37,1.37,0,1,0,0,2.74h2.57A1.37,1.37,0,1,0,963.47,812.26Zm-30.12-20.65c-12.68,0-23,10-23,22.38A21.87,21.87,0,0,0,914,826.06a1.43,1.43,0,0,0,1.94.41,1.35,1.35,0,0,0,.42-1.89,19.19,19.19,0,0,1-3.19-10.6c0-10.83,9.05-19.64,20.18-19.64s20.18,8.81,20.18,19.64a19.18,19.18,0,0,1-3.19,10.6,1.35,1.35,0,0,0,.42,1.89,1.43,1.43,0,0,0,1.94-.41A21.86,21.86,0,0,0,956.35,814C956.35,801.65,946,791.61,933.35,791.61ZM933,811.39a6.62,6.62,0,0,1,0-12.72,1.45,1.45,0,0,1,.85,0,6.62,6.62,0,0,1,0,12.72A1.44,1.44,0,0,1,933,811.39Zm0.43-2.77A3.89,3.89,0,1,0,931,805,3.92,3.92,0,0,0,933.41,808.62Zm14.79,20.8H938.14a1.37,1.37,0,1,0,0,2.74H948.2a3.24,3.24,0,1,1,0,6.47H938.07v-1.27a1.41,1.41,0,0,0-2.81,0V840a1.39,1.39,0,0,0,1.41,1.37H948.2A6,6,0,1,0,948.2,829.42Zm-14.79-9.69A1.39,1.39,0,0,0,932,821.1v9.69a1.41,1.41,0,0,0,2.81,0V821.1A1.39,1.39,0,0,0,933.41,819.73Z" transform="translate(-901.82 -782.95)"/></svg>