<svg id="texto" xmlns="http://www.w3.org/2000/svg" viewBox="0 0 50.28 54.77"><title>hiphop</title><path id="_Caminho_composto_" data-name="&lt;Caminho composto&gt;" d="M547.42,1262.76c-1.19-2.1,1.8-4.49,2.78-5.28,3.21-2.56,8.64-5.5,14.9-8.05a90.72,90.72,0,0,1,10.06-3.46,41,41,0,0,1,8-1.5c2.63-.15,4.22.33,4.86,1.46,1.08,1.91-1,4.42-6.23,7.66a1.17,1.17,0,0,1-1.59-.35,1.11,1.11,0,0,1,.36-1.55c4.33-2.66,5.37-4.26,5.42-4.68-0.14-.09-0.79-0.43-2.94-0.27a40.08,40.08,0,0,0-7.28,1.41,88.36,88.36,0,0,0-9.8,3.37c-6,2.44-11.33,5.32-14.32,7.71-1.92,1.53-2.17,2.3-2.2,2.47,0.38,0.3,2.59.75,8.51-.69a1.16,1.16,0,0,1,1.4.82,1.12,1.12,0,0,1-.84,1.36,33.67,33.67,0,0,1-6.87,1.07h-0.29C549.28,1264.25,548,1263.76,547.42,1262.76Zm0.71,16a1.17,1.17,0,0,0,1.45.39l5.66-2.59v1.31a1.12,1.12,0,0,0,.53.94,1.18,1.18,0,0,0,1.1.08l8.19-3.55,15.14,6.77a1.18,1.18,0,0,0,1.11-.07,1.12,1.12,0,0,0,.53-0.95v-1.21l4.8,2.13-0.39,1.32a1.12,1.12,0,0,0,.79,1.39,1.19,1.19,0,0,0,.32,0,1.15,1.15,0,0,0,1.11-.81l0.67-2.25a1.11,1.11,0,0,0-.63-1.33l-6.67-3v-2.24a1.12,1.12,0,0,0-.63-1l-4.51-2.22,0.12-5.16a1.14,1.14,0,0,0-1.13-1.15h0a1.14,1.14,0,0,0-1.15,1.1l-0.14,5.87a1.12,1.12,0,0,0,.63,1l4.53,2.23v2.24s0,0,0,0v1.18l-11.65-5.21,0.72-.31a1.11,1.11,0,0,0,.59-1.48,1.17,1.17,0,0,0-1.53-.57l-10.1,4.37v-1.33s0,0,0,0v-2.42l7.73-3.43a1.12,1.12,0,0,0,.68-1l0.22-9.27,23.7,10.53-0.39,1.32a1.12,1.12,0,0,0,.79,1.39,1.16,1.16,0,0,0,1.43-.77l0.67-2.25a1.11,1.11,0,0,0-.63-1.33l-0.52-.23,1.16-3.9a1.11,1.11,0,0,0-.63-1.33l-21.07-9.36a1.17,1.17,0,0,0-1.53.56,1.11,1.11,0,0,0,.57,1.49l20.16,9-0.78,2.65L564,1255.17a1.17,1.17,0,0,0-1.53.56,1.11,1.11,0,0,0,.57,1.49l0.88,0.39-0.23,9.53-7.75,3.44a1.12,1.12,0,0,0-.68,1V1274l-5.74,2.63-0.78-1.14a1.18,1.18,0,0,0-1.6-.31,1.11,1.11,0,0,0-.32,1.56Zm0.82-32.93a1.25,1.25,0,0,0,.35,0l-1.1,3.73a1.11,1.11,0,0,0,.63,1.33l3.36,1.49a1.18,1.18,0,0,0,.48.1,1.16,1.16,0,0,0,1.05-.66,1.11,1.11,0,0,0-.57-1.49l-2.46-1.09,0.78-2.65,6,2.66a1.17,1.17,0,0,0,1.53-.56,1.11,1.11,0,0,0-.57-1.49l-7.22-3.21a1.18,1.18,0,0,0-.51-0.1l0.34-1.14a1.12,1.12,0,0,0-.79-1.39,1.16,1.16,0,0,0-1.43.77l-0.67,2.25A1.12,1.12,0,0,0,548.95,1245.8Zm21.78,35.67a5.2,5.2,0,0,1,.31,4.09l-0.87,2.54a5.37,5.37,0,0,1-2.76,3.1,5.61,5.61,0,0,1-4.21.3,5.43,5.43,0,0,1-3.19-2.69,5.24,5.24,0,0,1-.59-2.52l-1.7-.31a1.13,1.13,0,0,1-.92-1.31,1.15,1.15,0,0,1,1.35-.9l1.76,0.33,0.65-1.91a5.56,5.56,0,0,1,7-3.4A5.44,5.44,0,0,1,570.72,1281.47Zm-2.94,6.37-6-1.11a3.08,3.08,0,0,0,.33,1.08,3.16,3.16,0,0,0,1.85,1.56,3.26,3.26,0,0,0,2.44-.18A3.15,3.15,0,0,0,567.78,1287.84Zm0.87-5.36a3.16,3.16,0,0,0-1.85-1.56,3.23,3.23,0,0,0-4,2l-0.55,1.63,6.35,1.17,0.28-.84A3,3,0,0,0,568.66,1282.48Zm1-15a1.17,1.17,0,0,0-1.51.61,1.11,1.11,0,0,0,.63,1.47l1.8,0.72a1.18,1.18,0,0,0,.44.09,1.16,1.16,0,0,0,1.07-.7,1.11,1.11,0,0,0-.63-1.47Zm23.85,26.43h-48a1.12,1.12,0,1,0,0,2.25h48A1.12,1.12,0,1,0,593.49,1293.87Z" transform="translate(-544.36 -1241.35)"/></svg>