<?xml version="1.0" encoding="UTF-8" standalone="no"?>
<!-- Generator: Adobe Illustrator 16.0.0, SVG Export Plug-In . SVG Version: 6.00 Build 0)  -->

<svg
   xmlns:dc="http://purl.org/dc/elements/1.1/"
   xmlns:cc="http://creativecommons.org/ns#"
   xmlns:rdf="http://www.w3.org/1999/02/22-rdf-syntax-ns#"
   xmlns:svg="http://www.w3.org/2000/svg"
   xmlns="http://www.w3.org/2000/svg"
   xmlns:sodipodi="http://sodipodi.sourceforge.net/DTD/sodipodi-0.dtd"
   xmlns:inkscape="http://www.inkscape.org/namespaces/inkscape"
   version="1.1"
   id="Capa_1"
   x="0px"
   y="0px"
   width="40"
   height="40"
   viewBox="0 0 39.999999 39.999999"
   xml:space="preserve"
   inkscape:version="0.91 r13725"
   sodipodi:docname="ideologia.svg"><metadata
     id="metadata41"><rdf:RDF><cc:Work
         rdf:about=""><dc:format>image/svg+xml</dc:format><dc:type
           rdf:resource="http://purl.org/dc/dcmitype/StillImage" /><dc:title></dc:title></cc:Work></rdf:RDF></metadata><defs
     id="defs39" /><sodipodi:namedview
     pagecolor="#ffffff"
     bordercolor="#666666"
     borderopacity="1"
     objecttolerance="10"
     gridtolerance="10"
     guidetolerance="10"
     inkscape:pageopacity="0"
     inkscape:pageshadow="2"
     inkscape:window-width="1366"
     inkscape:window-height="704"
     id="namedview37"
     showgrid="false"
     fit-margin-top="2"
     fit-margin-left="2"
     fit-margin-right="2"
     fit-margin-bottom="2"
     inkscape:zoom="13.3"
     inkscape:cx="21.278195"
     inkscape:cy="20"
     inkscape:window-x="0"
     inkscape:window-y="27"
     inkscape:window-maximized="1"
     inkscape:current-layer="Capa_1" /><g
     id="g7"
     transform="translate(-3.0257322,1.2031251)" /><g
     id="g9"
     transform="translate(-3.0257322,1.2031251)" /><g
     id="g11"
     transform="translate(-3.0257322,1.2031251)" /><g
     id="g13"
     transform="translate(-3.0257322,1.2031251)" /><g
     id="g15"
     transform="translate(-3.0257322,1.2031251)" /><g
     id="g17"
     transform="translate(-3.0257322,1.2031251)" /><g
     id="g19"
     transform="translate(-3.0257322,1.2031251)" /><g
     id="g21"
     transform="translate(-3.0257322,1.2031251)" /><g
     id="g23"
     transform="translate(-3.0257322,1.2031251)" /><g
     id="g25"
     transform="translate(-3.0257322,1.2031251)" /><g
     id="g27"
     transform="translate(-3.0257322,1.2031251)" /><g
     id="g29"
     transform="translate(-3.0257322,1.2031251)" /><g
     id="g31"
     transform="translate(-3.0257322,1.2031251)" /><g
     id="g33"
     transform="translate(-3.0257322,1.2031251)" /><g
     id="g35"
     transform="translate(-3.0257322,1.2031251)" /><path
     d="m 19.536977,1.9650979 c -2.627,-0.021 -6.64072,0.598391 -9.76172,3.90039 -1.887,1.993 -3.278812,4.5109061 -2.882812,8.6289061 0.087,0.891 1.360844,1.924391 0.464844,3.650391 0,0 -1.9224221,3.388172 -1.857422,3.951172 0,0 -0.03445,1.0315 1.560547,1.0625 0,0 0.397203,0.05169 0.283203,0.929687 l -0.01758,1.279297 c 0,0 0.04909,0.382281 0.746094,0.613282 0,-1e-6 0.133547,0.131812 -0.06445,0.382812 0,0 -0.367375,0.409922 0.265625,1.294922 0.235,0.324 0.612859,0.7305 0.380859,1.5625 0,0 -0.298969,1.607187 0.332031,1.992187 0,0 0.717514,0.848141 3.603516,0.494141 1.006995,-0.124 2.872375,-0.61475 3.984375,0.78125 0,0 2.65447,4.353875 2.85547,5.546875 0,0 7.16035,-4.611081 10.0625,-8.619141 0,0 -1.34447,-3.03961 1.39453,-6.974609 0,0 3.43215,-4.531484 3.53516,-7.021484 0,0 0.90613,-4.197563 -3.38086,-8.9765631 -2.059,-2.296999 -4.77891,-4.429515 -11.50391,-4.478515 z m 6.19922,5.480469 1.83398,0 0,0.777343 c 0.27375,0.07577 0.53342,0.184169 0.77539,0.322266 l 0.54883,-0.552734 1.29883,1.296875 -0.55273,0.550781 c 0.13565,0.2413641 0.24454,0.5002991 0.32031,0.7734371 l 0.77929,0 0,1.833984 -0.77929,0 c -0.0758,0.273749 -0.18283,0.533416 -0.32031,0.775391 l 0.55273,0.550781 -1.29883,1.294922 -0.54883,-0.550781 c -0.24136,0.136263 -0.50225,0.244542 -0.77539,0.320312 l 0,0.779297 -1.83398,0 0,-0.779297 c -0.27314,-0.07577 -0.53012,-0.182826 -0.77149,-0.320312 l -0.55273,0.550781 -1.29492,-1.294922 0.55078,-0.550781 c -0.13626,-0.241975 -0.24454,-0.502253 -0.32031,-0.775391 l -0.7793,0 0,-1.833984 0.7793,0 c 0.0758,-0.273749 0.18343,-0.532073 0.32031,-0.7734371 l -0.55078,-0.550781 1.29492,-1.296875 0.55273,0.552734 c 0.24076,-0.136264 0.49896,-0.246496 0.77149,-0.322266 l 0,-0.777343 z m -11.50586,0.208984 3,0 0,1.273437 c 0.448,0.124 0.87158,0.299391 1.26758,0.525391 l 0.90039,-0.902344 2.12304,2.1210941 -0.90234,0.902344 c 0.222,0.394999 0.39944,0.818627 0.52344,1.265624 l 1.27539,0 0,3 -1.27539,0 c -0.124,0.448001 -0.29844,0.873532 -0.52344,1.269532 l 0.90234,0.90039 -2.12304,2.121094 -0.90039,-0.902344 c -0.395,0.223 -0.82058,0.399439 -1.26758,0.523438 l 0,1.27539 -3,0 0,-1.27539 c -0.447,-0.123999 -0.87063,-0.298438 -1.26563,-0.523438 l -0.90234,0.902344 -2.121094,-2.121094 0.902344,-0.90039 c -0.223,-0.396 -0.399438,-0.822531 -0.523438,-1.269532 l -1.27539,0 0,-3 1.27539,0 c 0.124,-0.447998 0.299437,-0.870625 0.523438,-1.265624 l -0.902344,-0.902344 2.121094,-2.1210941 0.90234,0.902344 c 0.394,-0.223 0.81963,-0.401391 1.26563,-0.525391 l 0,-1.273437 z m 12.42383,1.767578 a 2.1092696,2.1092696 0 0 0 -2.10938,2.1093751 2.1092696,2.1092696 0 0 0 2.10938,2.109375 2.1092696,2.1092696 0 0 0 2.10937,-2.109375 2.1092696,2.1092696 0 0 0 -2.10937,-2.1093751 z m -10.92188,1.4667971 a 3.4518914,3.4518914 0 0 0 -3.453123,3.451171 3.4518914,3.4518914 0 0 0 3.453123,3.453126 3.4518914,3.4518914 0 0 0 3.45117,-3.453126 3.4518914,3.4518914 0 0 0 -3.45117,-3.451171 z m 8.82422,5.398437 1.45117,0 0,0.617188 c 0.21672,0.05998 0.42172,0.144578 0.61328,0.253906 l 0.43555,-0.4375 1.02734,1.027344 -0.43554,0.435546 c 0.10739,0.191083 0.19197,0.397044 0.25195,0.613282 l 0.61719,0 0,1.451172 -0.61719,0 c -0.06,0.216722 -0.14311,0.421714 -0.25195,0.613281 l 0.43554,0.435547 -1.02734,1.027344 -0.43555,-0.4375 c -0.19108,0.107877 -0.39704,0.193926 -0.61328,0.253906 l 0,0.617187 -1.45117,0 0,-0.617187 c -0.21624,-0.05999 -0.42025,-0.145062 -0.61133,-0.253906 l -0.4375,0.4375 -1.02539,-1.027344 0.43555,-0.435547 c -0.10788,-0.191567 -0.19197,-0.397043 -0.25195,-0.613281 l -0.61719,0 0,-1.451172 0.61719,0 c 0.06,-0.216722 0.14359,-0.422199 0.25195,-0.613282 l -0.43555,-0.435546 1.02539,-1.027344 0.4375,0.4375 c 0.1906,-0.107877 0.39558,-0.193926 0.61133,-0.253906 l 0,-0.617188 z m 0.72656,1.564453 a 1.6698661,1.6698661 0 0 0 -1.66992,1.669922 1.6698661,1.6698661 0 0 0 1.66992,1.671875 1.6698661,1.6698661 0 0 0 1.66993,-1.671875 1.6698661,1.6698661 0 0 0 -1.66993,-1.669922 z"
     id="path5-3"
     inkscape:connector-curvature="0" /><path
     style="color:#000000;clip-rule:nonzero;display:inline;overflow:visible;visibility:visible;opacity:1;isolation:auto;mix-blend-mode:normal;color-interpolation:sRGB;color-interpolation-filters:linearRGB;solid-color:#000000;solid-opacity:1;fill:#800000;fill-opacity:1;fill-rule:nonzero;stroke:none;stroke-width:8;stroke-linecap:round;stroke-linejoin:miter;stroke-miterlimit:4;stroke-dasharray:none;stroke-dashoffset:0;stroke-opacity:1;color-rendering:auto;image-rendering:auto;shape-rendering:auto;text-rendering:auto;enable-background:accumulate"
     d="m -55.174067,39.87243 c 2.846029,-0.108224 -2.845052,0.108817 -25.613281,0.974609 11.384114,-0.432896 22.767252,-0.866385 25.613281,-0.974609 z"
     id="rect3390"
     inkscape:connector-curvature="0" /></svg>