<svg id="texto" xmlns="http://www.w3.org/2000/svg" viewBox="0 0 45.5 67.46"><title>heavymetal</title><path d="M455.84,629.41c0,10.46-8.75,19-19.5,19h-2.17c-10.75,0-19.5-8.51-19.5-19V625.2h0A4.29,4.29,0,0,1,419,621h10.83a4.42,4.42,0,0,1,1.08.15v1.43a0.53,0.53,0,0,1-.54.53h-4.33a0.53,0.53,0,1,0,0,1.05h4.87a1.07,1.07,0,0,0,1.08-1.05v-1.52a4.18,4.18,0,0,1,2.15,3.44,4.26,4.26,0,0,1-4.31,4.41h-5.42a1.05,1.05,0,1,0,0,2.11h5.14a7,7,0,0,0,5.66-2.87,6.72,6.72,0,0,0,5.45,2.87,6.42,6.42,0,0,0,6.5-6.32V595.68a4.34,4.34,0,0,1,8.67,0v33.73h0Zm-41.17-40.05a4.34,4.34,0,0,1,8.67,0v29.51H419a6.56,6.56,0,0,0-4.33,1.63V589.36Zm10.83,17.92a4.34,4.34,0,0,1,8.67,0v13.21a6.57,6.57,0,0,0-4.33-1.62h-4.33V607.28Zm10.83,0a4.34,4.34,0,0,1,8.67,0V625.2a4.34,4.34,0,0,1-8.67,0V607.28Zm15.17-17.92a6.41,6.41,0,0,0-6.5,6.32v6.9a6.58,6.58,0,0,0-9.75,1.21,6.58,6.58,0,0,0-9.75-1.21V589.36a6.5,6.5,0,0,0-13,0v40.05c0,11.59,9.75,21.08,21.67,21.08h2.17c11.92,0,21.67-9.49,21.67-21.08V595.68a6.43,6.43,0,0,0-6.5-6.32h0Zm-9.21,33.73a0.53,0.53,0,0,1,.54.53v1.58a2.14,2.14,0,0,1-2.17,2.11,0.53,0.53,0,1,0,0,1.05,3.21,3.21,0,0,0,3.25-3.16v-2.11a1.07,1.07,0,0,0-1.08-1.05H438a0.53,0.53,0,1,0,0,1.05h4.33ZM421.18,612a0.53,0.53,0,0,0-.54-0.53h-3.25a0.53,0.53,0,1,0,0,1.05h3.25a0.53,0.53,0,0,0,.54-0.53h0ZM432,616.24a0.53,0.53,0,0,0-.54-0.53h-3.25a0.53,0.53,0,1,0,0,1.05h3.25a0.53,0.53,0,0,0,.54-0.53h0Zm7,0.53h3.25a0.53,0.53,0,1,0,0-1.05h-3.25a0.53,0.53,0,1,0,0,1.05h0Zm14.08,1.05h-3.25a0.53,0.53,0,1,0,0,1.05h3.25a0.53,0.53,0,1,0,0-1.05h0Zm0-13.7h-3.25a0.53,0.53,0,1,0,0,1.05h3.25a0.53,0.53,0,1,0,0-1.05h0Zm-35.75-5.27h3.25a0.53,0.53,0,1,0,0-1.05h-3.25a0.53,0.53,0,1,0,0,1.05h0Z" transform="translate(-412.51 -583.03)"/></svg>