<?xml version="1.0" encoding="UTF-8" standalone="no"?>
<!-- Created with Inkscape (http://www.inkscape.org/) -->

<svg
   xmlns:dc="http://purl.org/dc/elements/1.1/"
   xmlns:cc="http://creativecommons.org/ns#"
   xmlns:rdf="http://www.w3.org/1999/02/22-rdf-syntax-ns#"
   xmlns:svg="http://www.w3.org/2000/svg"
   xmlns="http://www.w3.org/2000/svg"
   xmlns:sodipodi="http://sodipodi.sourceforge.net/DTD/sodipodi-0.dtd"
   xmlns:inkscape="http://www.inkscape.org/namespaces/inkscape"
   width="40"
   height="40"
   viewBox="0 0 40 40.000001"
   id="svg3900"
   version="1.1"
   inkscape:version="0.91 r13725"
   sodipodi:docname="musica.svg">
  <defs
     id="defs3902" />
  <sodipodi:namedview
     id="base"
     pagecolor="#ffffff"
     bordercolor="#666666"
     borderopacity="1.0"
     inkscape:pageopacity="0.0"
     inkscape:pageshadow="2"
     inkscape:zoom="13.3"
     inkscape:cx="20"
     inkscape:cy="20"
     inkscape:document-units="px"
     inkscape:current-layer="layer1"
     showgrid="false"
     units="px"
     fit-margin-top="2"
     fit-margin-left="2"
     fit-margin-right="2"
     fit-margin-bottom="2"
     inkscape:window-width="1366"
     inkscape:window-height="704"
     inkscape:window-x="0"
     inkscape:window-y="27"
     inkscape:window-maximized="1" />
  <metadata
     id="metadata3905">
    <rdf:RDF>
      <cc:Work
         rdf:about="">
        <dc:format>image/svg+xml</dc:format>
        <dc:type
           rdf:resource="http://purl.org/dc/dcmitype/StillImage" />
        <dc:title></dc:title>
      </cc:Work>
    </rdf:RDF>
  </metadata>
  <g
     inkscape:label="Camada 1"
     inkscape:groupmode="layer"
     id="layer1"
     transform="translate(-244.42857,-598.9487)">
    <g
       id="g3947"
       transform="matrix(0.65588974,0,0,0.65588974,246.42833,600.94822)"
       style="fill:#000000">
      <path
         id="path3909"
         d="M 52.104,0.249 C 51.888,0.06 51.603,-0.026 51.315,0.008 l -31,4.011 c -0.499,0.065 -0.872,0.489 -0.872,0.992 l 0,6.017 0,4.212 0,26.035 C 17.706,39.285 14.997,38 11.944,38 c -5.247,0 -9.5,3.781 -9.5,8.444 0,4.663 4.253,8.444 9.5,8.444 5.247,0 9.5,-3.781 9.5,-8.444 0,-0.332 -0.027,-0.658 -0.069,-0.981 0.04,-0.108 0.069,-0.221 0.069,-0.343 l 0,-29.002 29,-3.753 0,18.909 C 48.706,29.285 45.997,28 42.944,28 c -5.247,0 -9.5,3.781 -9.5,8.444 0,4.663 4.253,8.444 9.5,8.444 5.247,0 9.5,-3.781 9.5,-8.444 0,-0.092 -0.012,-0.181 -0.015,-0.272 0.002,-0.027 0.015,-0.05 0.015,-0.077 l 0,-24.868 0,-4.211 0,-6.016 c 0,-0.288 -0.124,-0.562 -0.34,-0.751 z"
         style="fill:#000000"
         inkscape:connector-curvature="0" />
      <g
         id="g3911"
         style="fill:#000000" />
      <g
         id="g3913"
         style="fill:#000000" />
      <g
         id="g3915"
         style="fill:#000000" />
      <g
         id="g3917"
         style="fill:#000000" />
      <g
         id="g3919"
         style="fill:#000000" />
      <g
         id="g3921"
         style="fill:#000000" />
      <g
         id="g3923"
         style="fill:#000000" />
      <g
         id="g3925"
         style="fill:#000000" />
      <g
         id="g3927"
         style="fill:#000000" />
      <g
         id="g3929"
         style="fill:#000000" />
      <g
         id="g3931"
         style="fill:#000000" />
      <g
         id="g3933"
         style="fill:#000000" />
      <g
         id="g3935"
         style="fill:#000000" />
      <g
         id="g3937"
         style="fill:#000000" />
      <g
         id="g3939"
         style="fill:#000000" />
    </g>
  </g>
</svg>
