<svg id="texto" xmlns="http://www.w3.org/2000/svg" viewBox="0 0 54.31 56.76"><title>punk</title><rect x="24.14" y="36.21" width="6.03" height="1.96"/><rect x="43.25" y="27.4" width="2.01" height="3.91"/><path d="M701.85,677H687.76V671.8a14.58,14.58,0,0,0,7-12.39v-2.05a4.33,4.33,0,0,0,0-8.63v-0.09A11.88,11.88,0,0,0,684.36,637l0.38-5.93a1,1,0,0,0-.27-0.73,1,1,0,0,0-.73-0.31h-8a1,1,0,0,0-.73.31,1,1,0,0,0-.27.73l0.38,5.93a11.86,11.86,0,0,0-10.44,11.63v0.09a4.33,4.33,0,0,0,0,8.63v2.05a14.58,14.58,0,0,0,7,12.39V677H657.59a5,5,0,0,0-5,4.89v3.91a1,1,0,0,0,1,1h52.3a1,1,0,0,0,1-1v-3.91A5,5,0,0,0,701.85,677Zm-5-24a2.54,2.54,0,0,1-2,2.3v-4.59A2.54,2.54,0,0,1,696.82,653Zm-14.15-21-0.88,13.7h-4.14L676.77,632h5.91Zm-20.05,21a2.54,2.54,0,0,1,2-2.3v4.59A2.54,2.54,0,0,1,662.62,653Zm4,6.36V648.64h0A9.88,9.88,0,0,1,675.2,639l0.5,7.78a1,1,0,0,0,1,.92h6a1,1,0,0,0,1-.92l0.5-7.78a9.9,9.9,0,0,1,8.55,9.67h0v10.77A13.08,13.08,0,0,1,666.64,659.41Zm7,13.44a15.37,15.37,0,0,0,12.07,0V677H673.68v-4.17Zm-1,6.13h16.56l-9.52,5.7L670.2,679h2.48Zm-18.1,2.94a3,3,0,0,1,3-2.94h8.77l9.81,5.87H654.57v-2.94Zm50.29,2.94H683.27l9.81-5.87h8.77a3,3,0,0,1,3,2.94v2.94Z" transform="translate(-652.56 -630.04)"/><path d="M684.75,658.42a2,2,0,0,0,2-2h2v-2h-6v2A2,2,0,0,0,684.75,658.42Z" transform="translate(-652.56 -630.04)"/><path d="M676.7,654.51h-6v2h2a2,2,0,0,0,4,0v-2Z" transform="translate(-652.56 -630.04)"/></svg>