<svg id="texto" xmlns="http://www.w3.org/2000/svg" viewBox="0 0 60.26 74.39"><title>rasta</title><path d="M708.39,867.5a6.27,6.27,0,0,0,0-8,8.49,8.49,0,0,1-1-2.12,8.7,8.7,0,0,1,0-2.43,7.94,7.94,0,0,0-.46-4.15,8.33,8.33,0,0,0-3.08-3,8.94,8.94,0,0,1-1.89-1.51,8.7,8.7,0,0,1-1.1-2.15,8.17,8.17,0,0,0-2.28-3.57,8.56,8.56,0,0,0-4.07-1.37,9.31,9.31,0,0,1-2.41-.58,8.91,8.91,0,0,1-1.92-1.45,8.48,8.48,0,0,0-3.69-2.27,5.06,5.06,0,0,0-1.09-.11,11.25,11.25,0,0,0-3.14.6,6.31,6.31,0,0,1-5,0,11.25,11.25,0,0,0-3.14-.6,5.06,5.06,0,0,0-1.09.11,8.48,8.48,0,0,0-3.69,2.27,8.91,8.91,0,0,1-1.92,1.45,9.31,9.31,0,0,1-2.41.58,8.56,8.56,0,0,0-4.07,1.37,8.17,8.17,0,0,0-2.28,3.57,8.71,8.71,0,0,1-1.1,2.15,8.94,8.94,0,0,1-1.89,1.51,8.33,8.33,0,0,0-3.08,3,7.94,7.94,0,0,0-.46,4.15,8.7,8.7,0,0,1,0,2.43,8.48,8.48,0,0,1-1,2.12,6.27,6.27,0,0,0,0,8,8.49,8.49,0,0,1,1,2.12,8.7,8.7,0,0,1,0,2.43,7.94,7.94,0,0,0,.46,4.15,8.32,8.32,0,0,0,3.08,3,8.94,8.94,0,0,1,1.89,1.51,8.7,8.7,0,0,1,1.1,2.15,8.17,8.17,0,0,0,2.28,3.57,8.56,8.56,0,0,0,4.07,1.37,9.31,9.31,0,0,1,2.41.58,8.9,8.9,0,0,1,1.92,1.45,8.48,8.48,0,0,0,3.69,2.27,5.06,5.06,0,0,0,1.09.11,11.25,11.25,0,0,0,3.14-.6,6.31,6.31,0,0,1,5,0,11.25,11.25,0,0,0,3.14.6,5.06,5.06,0,0,0,1.09-.11,8.48,8.48,0,0,0,3.69-2.27,8.91,8.91,0,0,1,1.92-1.45,9.31,9.31,0,0,1,2.41-.58,8.56,8.56,0,0,0,4.07-1.37,8.17,8.17,0,0,0,2.28-3.57,8.71,8.71,0,0,1,1.1-2.15,8.94,8.94,0,0,1,1.89-1.51,8.33,8.33,0,0,0,3.08-3,7.94,7.94,0,0,0,.46-4.15,8.7,8.7,0,0,1,0-2.43A8.49,8.49,0,0,1,708.39,867.5Zm-2.28-1.26a10.37,10.37,0,0,0-1.29,2.82,10.6,10.6,0,0,0-.1,3.17,6,6,0,0,1-.21,2.87,6.33,6.33,0,0,1-2.21,2,10.91,10.91,0,0,0-2.45,2,10.63,10.63,0,0,0-1.49,2.79,6.19,6.19,0,0,1-1.48,2.52,6.51,6.51,0,0,1-2.84.84,11.35,11.35,0,0,0-3.14.8,10.89,10.89,0,0,0-2.55,1.87,6.41,6.41,0,0,1-2.49,1.66,2.34,2.34,0,0,1-.51.05,9.23,9.23,0,0,1-2.38-.49,8.81,8.81,0,0,0-6.46,0,9.23,9.23,0,0,1-2.38.49,2.34,2.34,0,0,1-.51-0.05,6.41,6.41,0,0,1-2.49-1.66,10.9,10.9,0,0,0-2.55-1.87,11.35,11.35,0,0,0-3.14-.8,6.51,6.51,0,0,1-2.84-.84,6.19,6.19,0,0,1-1.48-2.52,10.63,10.63,0,0,0-1.49-2.79,10.91,10.91,0,0,0-2.45-2,6.33,6.33,0,0,1-2.21-2,6,6,0,0,1-.21-2.87,10.59,10.59,0,0,0-.1-3.17,10.37,10.37,0,0,0-1.29-2.82,4,4,0,0,1,0-5.52,10.37,10.37,0,0,0,1.29-2.82,10.6,10.6,0,0,0,.1-3.17,6,6,0,0,1,.21-2.87,6.33,6.33,0,0,1,2.21-2,10.91,10.91,0,0,0,2.45-2,10.63,10.63,0,0,0,1.49-2.79,6.19,6.19,0,0,1,1.48-2.52,6.52,6.52,0,0,1,2.84-.84,11.35,11.35,0,0,0,3.14-.8A10.89,10.89,0,0,0,671.1,839a6.41,6.41,0,0,1,2.49-1.66,2.34,2.34,0,0,1,.51-0.05,9.23,9.23,0,0,1,2.38.49,8.81,8.81,0,0,0,6.46,0,9.23,9.23,0,0,1,2.38-.49,2.34,2.34,0,0,1,.51.05,6.41,6.41,0,0,1,2.49,1.66,10.9,10.9,0,0,0,2.55,1.87,11.35,11.35,0,0,0,3.14.8,6.51,6.51,0,0,1,2.84.84,6.19,6.19,0,0,1,1.48,2.52,10.63,10.63,0,0,0,1.49,2.79,10.91,10.91,0,0,0,2.45,2,6.33,6.33,0,0,1,2.21,2,6,6,0,0,1,.21,2.87,10.6,10.6,0,0,0,.1,3.17,10.37,10.37,0,0,0,1.29,2.82A4,4,0,0,1,706.11,866.24Z" transform="translate(-649.59 -817.79)"/><path d="M695,855h0l-5.89-7.23a1.33,1.33,0,0,0-1-.48H671.4a1.33,1.33,0,0,0-1,.48L662.06,858a1.25,1.25,0,0,0,.09,1.69l7.94,7.92v5.22c0,4.57,3.24,6.89,9.63,6.89s9.63-2.32,9.63-6.89v-5.22l7.94-7.92a1.25,1.25,0,0,0,.09-1.69ZM672,849.83H687.4l4.08,5-9.38,1.39A1.28,1.28,0,0,0,681,857.6l0.78,8.17h-4.1l0.78-8.17a1.28,1.28,0,0,0-1.11-1.38L668,854.83Zm15.06,16.32a1.26,1.26,0,0,0-.37.89v5.74c0,2.14-.83,4.33-7,4.33s-7-2.19-7-4.33V867a1.26,1.26,0,0,0-.37-0.89l-7.51-7.49,1.25-1.53,9.64,1.43-0.8,8.36a1.26,1.26,0,0,0,.34,1,1.33,1.33,0,0,0,1,.42h2.18v2.87h-2.18a1.28,1.28,0,1,0,0,2.55h7a1.28,1.28,0,1,0,0-2.55H681v-2.87h2.18a1.33,1.33,0,0,0,1-.42,1.26,1.26,0,0,0,.34-1l-0.8-8.36,9.64-1.43,1.25,1.53Z" transform="translate(-649.59 -817.79)"/><path d="M669.59,831.54h20.26a1.3,1.3,0,0,0,1.31-1.28,1.28,1.28,0,0,0-.86-1.2v-6a1.27,1.27,0,0,0-.56-1,1.34,1.34,0,0,0-1.21-.15l-3.74,1.36-4-5a1.34,1.34,0,0,0-2.06,0l-4,5-3.74-1.36a1.34,1.34,0,0,0-1.21.15,1.27,1.27,0,0,0-.56,1v6a1.28,1.28,0,0,0-.86,1.2A1.3,1.3,0,0,0,669.59,831.54Zm5-5.58a1.33,1.33,0,0,0,1.49-.4l3.61-4.43,3.61,4.43a1.34,1.34,0,0,0,1.49.4l2.87-1V829H671.76v-4.07Z" transform="translate(-649.59 -817.79)"/></svg>