<?xml version="1.0" encoding="UTF-8" standalone="no"?>
<!-- Generator: Adobe Illustrator 16.0.0, SVG Export Plug-In . SVG Version: 6.00 Build 0)  -->

<svg
   xmlns:dc="http://purl.org/dc/elements/1.1/"
   xmlns:cc="http://creativecommons.org/ns#"
   xmlns:rdf="http://www.w3.org/1999/02/22-rdf-syntax-ns#"
   xmlns:svg="http://www.w3.org/2000/svg"
   xmlns="http://www.w3.org/2000/svg"
   xmlns:sodipodi="http://sodipodi.sourceforge.net/DTD/sodipodi-0.dtd"
   xmlns:inkscape="http://www.inkscape.org/namespaces/inkscape"
   version="1.1"
   id="Capa_1"
   x="0px"
   y="0px"
   width="40"
   height="40"
   viewBox="0 0 40.000001 40.000001"
   xml:space="preserve"
   inkscape:version="0.91 r13725"
   sodipodi:docname="role.svg"><metadata
     id="metadata3668"><rdf:RDF><cc:Work
         rdf:about=""><dc:format>image/svg+xml</dc:format><dc:type
           rdf:resource="http://purl.org/dc/dcmitype/StillImage" /><dc:title></dc:title></cc:Work></rdf:RDF></metadata><defs
     id="defs3666" /><sodipodi:namedview
     pagecolor="#ffffff"
     bordercolor="#666666"
     borderopacity="1"
     objecttolerance="10"
     gridtolerance="10"
     guidetolerance="10"
     inkscape:pageopacity="0"
     inkscape:pageshadow="2"
     inkscape:window-width="1366"
     inkscape:window-height="704"
     id="namedview3664"
     showgrid="false"
     fit-margin-top="2"
     fit-margin-left="2"
     fit-margin-right="2"
     fit-margin-bottom="2"
     inkscape:zoom="12.666667"
     inkscape:cx="20.552313"
     inkscape:cy="21.000007"
     inkscape:window-x="0"
     inkscape:window-y="27"
     inkscape:window-maximized="1"
     inkscape:current-layer="Capa_1" /><g
     id="g3592"
     transform="matrix(0.06457334,0,0,0.06457334,2.0000079,1.9999752)"><g
       id="g3594"><path
         d="m 196.261,310.341 0,73.893 c 0,5.948 4.822,10.771 10.774,10.771 5.952,0 10.774,-4.823 10.774,-10.771 l 0,-67.14 -34.128,-36.022 c -7.454,-7.87 -10.395,-18.862 -7.864,-29.403 l 8.213,-34.223 -9.599,0 7.2,-10.921 c 1.518,0.694 3.115,1.242 4.792,1.582 1.732,-5.113 4.669,-9.578 8.449,-13.103 4.954,-4.615 11.353,-7.595 18.36,-8.333 1.049,-0.11 2.108,-0.181 3.186,-0.187 l 0,-35.254 c 0,-5.949 -4.823,-10.771 -10.771,-10.771 -5.948,0 -10.771,4.826 -10.771,10.771 l 0,12.999 c -1.288,-0.232 -2.61,-0.374 -3.966,-0.374 -1.365,0 -2.693,0.141 -3.99,0.376 l 0,-30.673 c 0,-5.949 -4.822,-10.771 -10.774,-10.771 -5.948,0 -10.771,4.822 -10.771,10.771 l 0,58.489 -5.217,7.916 -5.217,-7.916 0,-58.489 c 0,-5.949 -4.823,-10.771 -10.771,-10.771 -5.948,0 -10.771,4.822 -10.771,10.771 l 0,30.673 c -1.297,-0.232 -2.625,-0.376 -3.99,-0.376 -2.751,0 -5.376,0.521 -7.812,1.432 l 0,-50.089 c 0,-5.949 -4.823,-10.771 -10.774,-10.771 -5.951,0 -10.771,4.823 -10.771,10.771 l 0,58.489 -6.613,10.034 0,-50.163 c 0,-5.949 -4.823,-10.771 -10.771,-10.771 -5.948,0 -10.771,4.822 -10.771,10.771 l 0,13.369 c -2.436,-0.909 -5.058,-1.432 -7.812,-1.432 -12.344,0 -22.351,10.006 -22.351,22.35 0,12.344 10.006,22.351 22.351,22.351 2.751,0 5.376,-0.521 7.812,-1.432 l 0,6.512 c 0,1.31 0.266,2.595 0.725,3.807 l -8.537,0 -19.233,0 -16.741,-25.398 0,-58.485 c 0,-5.949 -4.823,-10.771 -10.771,-10.771 -5.948,0 -10.772,4.821 -10.772,10.769 l 0,61.72 c 0,2.108 0.618,4.167 1.778,5.927 l 29.051,44.076 0,47.09 c -0.138,0.691 -0.214,1.404 -0.214,2.136 l 0,89.728 c 0,5.949 4.822,10.771 10.771,10.771 5.949,0 10.774,-4.822 10.774,-10.771 l 0,-73.895 5.355,0 5.355,0 0,73.893 c 0,5.949 4.823,10.771 10.774,10.771 5.951,0 10.774,-4.822 10.774,-10.771 l 0,-89.728 c 0,-0.731 -0.076,-1.444 -0.214,-2.136 l 0,-46.867 11.955,18.137 0,47.09 c -0.138,0.691 -0.214,1.404 -0.214,2.136 l 0,89.729 c 0,5.948 4.822,10.771 10.774,10.771 5.949,0 10.771,-4.823 10.771,-10.771 l 0,-73.893 5.355,0 5.355,0 0,73.893 c 0,5.948 4.822,10.771 10.771,10.771 5.949,0 10.771,-4.823 10.771,-10.771 l 0,-89.729 c 0,-0.731 -0.077,-1.444 -0.214,-2.136 l 0,-47.09 4.067,-6.172 4.066,6.172 0,47.09 c -0.138,0.691 -0.214,1.404 -0.214,2.136 l 0,89.729 c 0,5.948 4.822,10.771 10.771,10.771 5.949,0 10.774,-4.823 10.774,-10.771 l 0,-73.893 5.355,0 5.346,0 0,0 z m -66.861,-92.896 -19.23,0 -6.582,-9.988 6.555,-9.945 c 3.886,6.6 11.043,11.043 19.256,11.043 3.314,0 6.445,-0.741 9.275,-2.032 l 7.2,10.921 -16.474,0 z"
         id="path3596"
         inkscape:connector-curvature="0" /><path
         d="m 240.977,197.839 c 1.107,-1.771 2.295,-3.485 3.595,-5.107 1.212,-1.512 2.482,-2.971 3.847,-4.342 2.396,-2.408 5.019,-4.584 7.831,-6.505 3.075,-2.099 6.383,-3.874 9.869,-5.306 l 0,-17.274 c 0,-5.948 -4.823,-10.771 -10.771,-10.771 -2.653,0 -5.052,0.998 -6.928,2.585 l 0,-17.561 c 0,-5.949 -4.823,-10.771 -10.774,-10.771 -5.951,0 -10.771,4.822 -10.771,10.771 l 0,54.633 c 2.472,0.835 4.771,1.967 6.897,3.326 2.734,1.745 5.151,3.883 7.205,6.322 z"
         id="path3598"
         inkscape:connector-curvature="0" /><polygon
         points="233.902,379.239 233.902,334.086 225.484,325.2 225.484,389.527 "
         id="polygon3600" /><path
         d="m 537.135,112.499 c -5.947,0 -10.771,4.823 -10.771,10.771 l 0,58.489 -16.74,25.398 -19.229,0 -8.537,0 c 0.459,-1.215 0.725,-2.497 0.725,-3.807 l 0,-6.512 c 2.436,0.909 5.059,1.432 7.809,1.432 12.344,0 22.35,-10.006 22.35,-22.35 0,-12.344 -10.006,-22.351 -22.35,-22.351 -2.75,0 -5.377,0.521 -7.809,1.432 l 0,-13.369 c 0,-5.949 -4.822,-10.771 -10.775,-10.771 -5.947,0 -10.77,4.822 -10.77,10.771 l 0,50.166 -6.617,-10.034 0,-58.495 c 0,-5.949 -4.822,-10.771 -10.77,-10.771 -5.949,0 -10.775,4.823 -10.775,10.771 l 0,50.089 c -2.436,-0.909 -5.059,-1.432 -7.812,-1.432 -1.363,0 -2.691,0.141 -3.99,0.376 l 0,-30.672 c 0,-5.949 -4.822,-10.771 -10.771,-10.771 -5.947,0 -10.77,4.822 -10.77,10.771 l 0,58.489 -5.219,7.916 -0.82,-1.242 0,2.485 0,36.662 0,2.485 0.82,-1.242 4.066,6.172 0,47.09 c -0.137,0.691 -0.213,1.404 -0.213,2.136 l 0,89.729 c 0,5.948 4.822,10.771 10.773,10.771 5.949,0 10.771,-4.823 10.771,-10.771 l 0,-73.893 5.355,0 5.355,0 0,73.893 c 0,5.948 4.822,10.771 10.77,10.771 5.949,0 10.775,-4.823 10.775,-10.771 l 0,-89.73 c 0,-0.731 -0.076,-1.444 -0.215,-2.136 l 0,-47.09 11.955,-18.137 0,46.868 c -0.137,0.691 -0.213,1.404 -0.213,2.136 l 0,89.728 c 0,5.949 4.822,10.771 10.773,10.771 5.951,0 10.771,-4.822 10.771,-10.771 l 0,-73.893 5.355,0 5.354,0 0,73.893 c 0,5.949 4.824,10.771 10.775,10.771 5.951,0 10.771,-4.822 10.771,-10.771 l 0,-89.728 c 0,-0.731 -0.076,-1.444 -0.215,-2.136 l 0,-47.091 29.051,-44.076 c 1.16,-1.76 1.779,-3.819 1.779,-5.927 l 0,-61.72 c 0.003,-5.946 -4.819,-10.772 -10.772,-10.772 z m -92.834,113.021 -19.229,0 -16.472,0 7.201,-10.921 c 2.826,1.294 5.961,2.032 9.275,2.032 8.213,0 15.373,-4.443 19.256,-11.043 l 6.555,9.945 -6.586,9.987 z"
         id="path3602"
         inkscape:connector-curvature="0" /><path
         d="m 390.252,263.305 c -0.602,1.236 -1.254,2.448 -2.02,3.608 l -42.299,64.177 0,66.772 c 0.221,1.524 0.334,3.061 0.334,4.581 l 0,0.517 c 0.389,0.043 0.771,0.12 1.172,0.12 5.949,0 10.771,-4.823 10.771,-10.771 l 0,-73.893 5.355,0 5.355,0 0,73.893 c 0,5.948 4.822,10.771 10.773,10.771 5.951,0 10.771,-4.823 10.771,-10.771 l 0,-89.729 c 0,-0.731 -0.076,-1.444 -0.215,-2.136 l 0,-37.139 z"
         id="path3604"
         inkscape:connector-curvature="0" /><path
         d="m 327.596,141.63 c 0,-5.949 -4.822,-10.771 -10.771,-10.771 -5.947,0 -10.773,4.822 -10.773,10.771 l 0,1.411 c -1.879,-1.591 -4.275,-2.586 -6.928,-2.586 -5.949,0 -10.771,4.826 -10.771,10.771 l 0,21.432 c 6.227,0.223 12.186,1.497 17.699,3.678 1.309,0.517 2.586,1.099 3.844,1.713 6.832,3.348 12.873,8.057 17.699,13.844 l 0,-50.263 10e-4,0 z"
         id="path3606"
         inkscape:connector-curvature="0" /><path
         d="M 95.18,94.372 C 101.606,85.939 101.894,74.078 96.581,64.8 90.834,54.766 65.718,35.654 79.589,24.536 87.288,18.364 76.388,7.611 68.769,13.716 c -9.033,7.24 -9.893,18.354 -6.75,28.88 4.189,14.024 31.708,28.617 19.951,44.052 -5.986,7.852 7.313,15.459 13.21,7.724 z"
         id="path3608"
         inkscape:connector-curvature="0" /><path
         d="m 494.023,28.985 c 9.816,-0.994 6.514,-15.945 -3.197,-14.963 -11.52,1.166 -18.281,10.024 -21.365,20.569 -4.109,14.048 11.055,41.258 -7.203,47.818 -9.291,3.338 -2.266,16.952 6.887,13.663 9.979,-3.586 16.668,-13.385 17.254,-24.058 0.628,-11.544 -10.063,-41.238 7.624,-43.029 z"
         id="path3610"
         inkscape:connector-curvature="0" /><path
         d="m 194.348,92.688 c 1.643,10.563 9.275,19.651 19.56,22.225 9.437,2.362 15.074,-11.882 5.499,-14.281 C 200.585,95.917 212.969,67.336 207.486,53.765 203.37,43.578 195.76,35.435 184.181,35.42 c -9.761,-0.012 -11.563,15.193 -1.695,15.205 17.771,0.028 10.087,30.641 11.862,42.063 z"
         id="path3612"
         inkscape:connector-curvature="0" /><path
         d="m 381.332,37.851 c 4.498,-10.025 5.105,-21.154 -2.904,-29.517 -6.75,-7.053 -18.969,2.179 -12.145,9.306 12.293,12.84 -15.113,28.495 -22.127,37.687 -6.484,8.5 -7.754,20.297 -2.488,29.501 4.83,8.442 19.01,2.647 14.111,-5.924 -9.633,-16.84 19.563,-27.696 25.553,-41.053 z"
         id="path3614"
         inkscape:connector-curvature="0" /><path
         d="m 243.213,53.885 c 4.097,9.875 13.666,16.895 24.266,16.958 9.728,0.061 11.83,-15.113 1.958,-15.177 -19.403,-0.123 -14.14,-30.824 -22.684,-42.708 -6.414,-8.923 -15.735,-15.031 -26.986,-12.301 -9.489,2.301 -7.638,17.5 1.952,15.174 17.281,-4.186 17.063,27.375 21.494,38.054 z"
         id="path3616"
         inkscape:connector-curvature="0" /><path
         d="m 135.128,95.73 c 13.813,0 13.813,-21.42 0,-21.42 -13.813,0 -13.813,21.42 0,21.42 z"
         id="path3618"
         inkscape:connector-curvature="0" /><path
         d="m 32.618,65.13 c 13.812,0 13.812,-21.42 0,-21.42 -13.813,0 -13.813,21.42 0,21.42 z"
         id="path3620"
         inkscape:connector-curvature="0" /><path
         d="m 320.258,16.17 c -13.812,0 -13.812,21.42 0,21.42 13.812,0 13.812,-21.42 0,-21.42 z"
         id="path3622"
         inkscape:connector-curvature="0" /><path
         d="m 300.367,92.67 c 13.814,0 13.814,-21.42 0,-21.42 -13.812,0 -13.812,21.42 0,21.42 z"
         id="path3624"
         inkscape:connector-curvature="0" /><path
         d="m 418.178,60.541 c 13.812,0 13.812,-21.42 0,-21.42 -13.812,0 -13.813,21.42 0,21.42 z"
         id="path3626"
         inkscape:connector-curvature="0" /><path
         d="m 540.578,62.07 c -13.812,0 -13.812,21.42 0,21.42 13.812,0 13.813,-21.42 0,-21.42 z"
         id="path3628"
         inkscape:connector-curvature="0" /><path
         d="m 336.666,317.348 38.791,-58.853 c 1.791,-2.714 2.742,-5.894 2.742,-9.143 l 0,-23.828 0,-2.791 0,-11.579 0,-33.739 0,-45.328 c 0,-0.407 -0.031,-0.808 -0.061,-1.208 -0.621,-8.611 -7.789,-15.41 -16.562,-15.41 -9.18,0 -16.617,7.442 -16.617,16.619 l 0,17.191 0,32.629 0,24.749 0,18.865 0,18.844 -8.08,12.255 -17.746,26.931 -40.063,0 -3.666,0 -22.506,0 -27.775,-29.321 5.508,-22.947 2.161,-9 c 0.006,-0.031 0.009,-0.064 0.018,-0.095 0.101,-0.438 0.181,-0.875 0.245,-1.31 0.021,-0.217 0.058,-0.428 0.083,-0.646 0.214,-1.906 0.089,-3.788 -0.331,-5.584 -0.397,-1.705 -1.049,-3.332 -1.943,-4.816 -2.219,-3.681 -5.848,-6.508 -10.355,-7.592 -0.107,-0.024 -0.211,-0.034 -0.318,-0.058 -1.203,-0.266 -2.402,-0.41 -3.586,-0.41 -0.064,0 -0.125,0.016 -0.189,0.016 -7.427,0.085 -14.134,5.18 -15.946,12.729 l -0.701,2.922 -1.083,4.516 -7.986,33.278 c -1.313,5.468 0.229,11.23 4.094,15.312 l 23.014,24.297 7.895,8.335 23.5,24.811 0,0.021 0,56.689 -2.172,2.653 -18.238,22.289 -34.798,42.537 c -5.566,6.809 -4.872,16.771 1.591,22.741 l 42.344,39.089 c 3.195,2.95 7.237,4.406 11.267,4.406 4.477,0 8.941,-1.799 12.215,-5.346 6.227,-6.747 5.805,-17.258 -0.939,-23.488 l -30.839,-28.468 28.015,-34.234 40.079,0 0,114.009 c 0,9.177 7.443,16.619 16.619,16.619 9.178,0 16.619,-7.442 16.619,-16.619 l 0,-138.44 c 0,-1.129 -0.119,-2.233 -0.334,-3.299 l 0,-72.641 6.034,-9.159 z"
         id="path3630"
         inkscape:connector-curvature="0" /><path
         d="m 249.171,235.116 c 2.543,10.643 9.489,19.569 18.844,24.701 3.403,1.866 7.124,3.222 11.056,3.984 2.381,0.462 4.832,0.722 7.344,0.722 15.055,0 28.045,-8.703 34.314,-21.331 1.463,-2.947 2.59,-6.089 3.256,-9.407 0.494,-2.454 0.76,-4.994 0.76,-7.595 0,-2.996 -0.379,-5.896 -1.029,-8.693 -2.02,-8.7 -6.99,-16.249 -13.818,-21.555 -1.225,-0.952 -2.51,-1.824 -3.844,-2.623 -2.322,-1.389 -4.795,-2.549 -7.402,-3.427 -3.258,-1.099 -6.713,-1.753 -10.296,-1.934 -0.646,-0.034 -1.285,-0.098 -1.94,-0.098 -5.568,0 -10.847,1.215 -15.621,3.351 -1.625,0.725 -3.179,1.57 -4.676,2.506 -9.706,6.08 -16.505,16.355 -17.8,28.308 -0.024,0.217 -0.027,0.434 -0.058,0.651 -0.095,1.031 -0.147,2.075 -0.159,3.127 0,0.128 -0.019,0.254 -0.019,0.386 0,1.239 0.071,2.46 0.187,3.669 0.17,1.797 0.491,3.545 0.901,5.258 z"
         id="path3632"
         inkscape:connector-curvature="0" /></g></g><g
     id="g3634"
     transform="translate(-40.568,-260.34431)" /><g
     id="g3636"
     transform="translate(-40.568,-260.34431)" /><g
     id="g3638"
     transform="translate(-40.568,-260.34431)" /><g
     id="g3640"
     transform="translate(-40.568,-260.34431)" /><g
     id="g3642"
     transform="translate(-40.568,-260.34431)" /><g
     id="g3644"
     transform="translate(-40.568,-260.34431)" /><g
     id="g3646"
     transform="translate(-40.568,-260.34431)" /><g
     id="g3648"
     transform="translate(-40.568,-260.34431)" /><g
     id="g3650"
     transform="translate(-40.568,-260.34431)" /><g
     id="g3652"
     transform="translate(-40.568,-260.34431)" /><g
     id="g3654"
     transform="translate(-40.568,-260.34431)" /><g
     id="g3656"
     transform="translate(-40.568,-260.34431)" /><g
     id="g3658"
     transform="translate(-40.568,-260.34431)" /><g
     id="g3660"
     transform="translate(-40.568,-260.34431)" /><g
     id="g3662"
     transform="translate(-40.568,-260.34431)" /></svg>