<svg id="texto" xmlns="http://www.w3.org/2000/svg" viewBox="0 0 51.33 52.29"><title>screamo</title><path d="M931.07,613.47c-0.59-3.27-6.37-3.58-7.52-3.61h0a4,4,0,0,0-3.86,2.6,7,7,0,0,0,1,5.42,5,5,0,0,0,3.6,2.25,5.75,5.75,0,0,0,.65,0,6.2,6.2,0,0,0,4.43-2A5.55,5.55,0,0,0,931.07,613.47Zm-3.38,3.19a3.76,3.76,0,0,1-3.12,1.22,2.66,2.66,0,0,1-1.93-1.25,4.89,4.89,0,0,1-.75-3.53,1.76,1.76,0,0,1,1.62-1c2,0.06,5.07.7,5.26,1.73A3.44,3.44,0,0,1,927.69,616.66Z" transform="translate(-907.68 -589.45)"/><path d="M943.3,609.87h0c-1.15,0-6.93.34-7.52,3.61a5.55,5.55,0,0,0,1.69,4.75,6.2,6.2,0,0,0,4.43,2,5.75,5.75,0,0,0,.65,0,5,5,0,0,0,3.6-2.25,7,7,0,0,0,1-5.42A4,4,0,0,0,943.3,609.87Zm0.88,6.77a2.66,2.66,0,0,1-1.93,1.25,3.77,3.77,0,0,1-3.12-1.22,3.44,3.44,0,0,1-1.09-2.79c0.19-1,3.22-1.67,5.26-1.73a1.75,1.75,0,0,1,1.62,1A4.89,4.89,0,0,1,944.18,616.64Z" transform="translate(-907.68 -589.45)"/><path d="M934.79,624c0-.08-0.08-0.24-0.13-0.38s-0.06-.19-0.11-0.31v-0.74l-0.79-.12a1.19,1.19,0,0,0-.37,0,1.12,1.12,0,0,0-.4.06l-0.77.13v0.72c0,0.11-.08.21-0.11,0.3S932,624,932,624l-2.8,4.77a3.61,3.61,0,0,0-.45,2.63,2.46,2.46,0,0,0,2.52,2h0a3.2,3.2,0,0,0,1.94-.68,0.23,0.23,0,0,1,.25,0,3.2,3.2,0,0,0,1.94.68h0a2.46,2.46,0,0,0,2.52-2,3.6,3.6,0,0,0-.45-2.63Zm0.94,6.84a0.54,0.54,0,0,1-.09.23l-0.16,0a0.84,0.84,0,0,1-.51-0.18,2.61,2.61,0,0,0-3.16,0,0.84,0.84,0,0,1-.51.18l-0.16,0a0.54,0.54,0,0,1-.09-0.23,1.42,1.42,0,0,1,.2-1l2.14-3.65,2.14,3.65h0A1.41,1.41,0,0,1,935.73,630.87Z" transform="translate(-907.68 -589.45)"/><path d="M916.47,604.11a1.12,1.12,0,0,0,.37-1.56,1.19,1.19,0,0,0-1.61-.36,4.75,4.75,0,0,0,0,8.74,1.19,1.19,0,0,0,.61.17,1.18,1.18,0,0,0,1-.54,1.12,1.12,0,0,0-.37-1.56A2.56,2.56,0,0,1,916.47,604.11Z" transform="translate(-907.68 -589.45)"/><path d="M950.23,609a1.12,1.12,0,0,0-.37,1.56,1.17,1.17,0,0,0,1,.54,1.2,1.2,0,0,0,.61-0.17,4.75,4.75,0,0,0,0-8.74,1.19,1.19,0,0,0-1.61.36,1.12,1.12,0,0,0,.37,1.56A2.56,2.56,0,0,1,950.23,609Z" transform="translate(-907.68 -589.45)"/><path d="M958.88,622.63a5.08,5.08,0,0,0-.35-1l-0.1-.2a5,5,0,0,0-.54-0.83l-0.1-.11a4.86,4.86,0,0,0-.63-0.62l-0.16-.13a5,5,0,0,0-.84-0.51l-0.07,0,0.32-.87c2.59-9.58,1.67-17-2.72-22-6.74-7.7-19.17-6.93-20.57-6.82-1.4-.11-13.83-0.89-20.57,6.82-4.39,5-5.31,12.42-2.71,22l0.33,1.06-0.12.09a5,5,0,0,0-.57.42l-0.16.13a5,5,0,0,0-.6.65l-0.11.16a5,5,0,0,0-.37.63l-0.11.23a5.12,5.12,0,0,0-.3.88,4.91,4.91,0,0,0,1.51,4.85,6.85,6.85,0,0,0,1.23,4.67,4.67,4.67,0,0,0,3.41,1.64l0.63,0c4,0.25,4.74.3,4.74,3.37v2.37a2.2,2.2,0,0,0,2.23,2.17h23.54a2.2,2.2,0,0,0,2.23-2.17V637.2c0-3.07.72-3.12,4.74-3.37l0.63,0a4.67,4.67,0,0,0,3.41-1.64,6.87,6.87,0,0,0,1.23-4.67A4.91,4.91,0,0,0,958.88,622.63Zm-2.59,4.26-0.83-.81-0.57.41,0.11,0.68a5.21,5.21,0,0,1-.68,3.58,2.31,2.31,0,0,1-1.74.79l-0.62,0c-3.87.24-6.93,0.43-6.93,5.63v2.27h-3.5V637.2a1.17,1.17,0,0,0-2.33,0v2.27h-2.33V637.2a1.17,1.17,0,0,0-2.33,0v2.27h-2.33V637.2a1.17,1.17,0,0,0-2.33,0v2.27h-2.33V637.2a1.17,1.17,0,0,0-2.33,0v2.27h-3.5V637.2c0-5.2-3.06-5.39-6.93-5.63l-0.63,0a2.31,2.31,0,0,1-1.74-.79,5.21,5.21,0,0,1-.68-3.58l0-.77-0.56-.41a2.71,2.71,0,0,1-1-2.84,2.92,2.92,0,0,1,.27-0.7c0-.07.09-0.13,0.13-0.19a2.69,2.69,0,0,1,.3-0.39l0.19-.18a2.67,2.67,0,0,1,.38-0.27l0.24-.13a2.88,2.88,0,0,1,.65-0.22c2.14-.41,3.59-1.16,4.31-2.22a2.9,2.9,0,0,0,.45-2.18v-3.3a1.17,1.17,0,0,0-2.33,0v3.41l0,0.23a0.69,0.69,0,0,1-.09.59,3.72,3.72,0,0,1-2.24,1.11l-0.29-.94c-2.38-8.82-1.63-15.53,2.23-19.95,6.2-7.1,18.57-6,18.69-6h0.22c0.12,0,12.49-1.07,18.69,6,3.86,4.42,4.61,11.13,2.26,19.85l-0.33.9a3.22,3.22,0,0,1-1.77-1A0.69,0.69,0,0,1,952,617l0-3.64a1.17,1.17,0,0,0-2.33,0v3.3a2.9,2.9,0,0,0,.45,2.18,5.34,5.34,0,0,0,3,1.88v0l1.29,0.28h0.07l0.13,0a2.87,2.87,0,0,1,.63.22,2.64,2.64,0,0,1,.57.41l0.06,0a2.62,2.62,0,0,1,.35.46c0,0.05.09,0.1,0.12,0.15a2.86,2.86,0,0,1,.29.75,2.71,2.71,0,0,1-1,2.84Z" transform="translate(-907.68 -589.45)"/></svg>