<svg id="texto" xmlns="http://www.w3.org/2000/svg" viewBox="0 0 58.53 56.95"><title>skate</title><path d="M443.82,806a1,1,0,0,0,.7-0.28,0.94,0.94,0,0,0,0-1.36,1,1,0,0,0-1.4,0,0.94,0.94,0,0,0,0,1.36A1,1,0,0,0,443.82,806Z" transform="translate(-406 -784.85)"/><path d="M426,821a0.94,0.94,0,0,0,0,1.36,1,1,0,0,0,1.4,0,0.94,0.94,0,0,0,0-1.36A1,1,0,0,0,426,821Z" transform="translate(-406 -784.85)"/><path d="M460.79,788.49a13,13,0,0,0-18.05,0l-0.78.76a3.39,3.39,0,0,0-1.5-.34,3.36,3.36,0,0,0-2.35.95l-5.74,5.58a3.18,3.18,0,0,0-.62,3.75l-11,10.74a3.41,3.41,0,0,0-3.85.6l-5.74,5.58a3.18,3.18,0,0,0-.62,3.75l-0.78.76a12.19,12.19,0,0,0,0,17.57,13,13,0,0,0,18.05,0l0.78-.76a3.39,3.39,0,0,0,1.5.34,3.36,3.36,0,0,0,2.35-.95l5.74-5.58a3.18,3.18,0,0,0,.62-3.75l11-10.74a3.41,3.41,0,0,0,3.85-.6l5.74-5.58a3.18,3.18,0,0,0,.62-3.75l0.78-.76A12.2,12.2,0,0,0,460.79,788.49Zm-27.08,8.24,5.74-5.58a1.47,1.47,0,0,1,2,0L443.4,793a1.38,1.38,0,0,1,0,2l-3.86,3.76,0,0-1.84,1.79a1.47,1.47,0,0,1-2,0l-1.91-1.86A1.38,1.38,0,0,1,433.71,796.73Zm8.87,5.86-1.28-3,1.08-1,8,7.82-1.08,1-3-1.25a1,1,0,0,0-1,.2,2.08,2.08,0,0,1-2.88,0,1.95,1.95,0,0,1,0-2.81A0.9,0.9,0,0,0,442.58,802.59ZM412.47,817.4l5.74-5.58a1.47,1.47,0,0,1,2,0l1.91,1.86a1.38,1.38,0,0,1,0,2l-1.84,1.79,0,0-3.86,3.76a1.47,1.47,0,0,1-2,0l-1.91-1.86A1.38,1.38,0,0,1,412.47,817.4Zm15.47,6.67,1.28,3-1.08,1-8-7.82,1.08-1,3,1.25a1,1,0,0,0,1-.2,2.08,2.08,0,0,1,2.88,0,2,2,0,0,1,0,2.81A0.9,0.9,0,0,0,427.94,824.07Zm-1.49,12.8a11.11,11.11,0,0,1-15.38,0,10.38,10.38,0,0,1,0-15l0.66-.64,1.32,1.28a3.4,3.4,0,0,0,4.71,0l1-1,8,7.82-1,1a3.18,3.18,0,0,0,0,4.58l1.32,1.28Zm10.36-6.94-5.74,5.58a1.47,1.47,0,0,1-2,0l-1.91-1.86a1.38,1.38,0,0,1,0-2l1.68-1.63h0l2.17-2.11,0,0,1.84-1.79a1.47,1.47,0,0,1,2,0l1.91,1.86A1.38,1.38,0,0,1,436.82,829.93Zm0.74-3.86-1.32-1.28a3.4,3.4,0,0,0-4.71,0l-0.87.84-0.76-1.76a3.75,3.75,0,0,0-.43-4.91,4,4,0,0,0-5.05-.41l-1.8-.74,0.87-.84a3.18,3.18,0,0,0,0-4.58l-1.32-1.28,10.8-10.5,1.32,1.28a3.4,3.4,0,0,0,4.71,0l0.87-.84,0.76,1.76a3.75,3.75,0,0,0,.43,4.92,4,4,0,0,0,2.78,1.12h0a4,4,0,0,0,2.27-.71l1.8,0.74-0.87.84a3.18,3.18,0,0,0,0,4.58l1.32,1.28Zm20.5-16.81-5.74,5.58a1.47,1.47,0,0,1-2,0L448.37,813a1.38,1.38,0,0,1,0-2l1.85-1.8,0,0,2.18-2.12h0l1.68-1.64a1.47,1.47,0,0,1,2,0l1.91,1.86A1.38,1.38,0,0,1,458.06,809.26Zm1.4-4.5-0.66.64-1.32-1.28a3.4,3.4,0,0,0-4.71,0l-1,1-8-7.82,1-1a3.18,3.18,0,0,0,0-4.58l-1.32-1.28,0.66-.64a11.09,11.09,0,0,1,15.38,0A10.38,10.38,0,0,1,459.46,804.76Z" transform="translate(-406 -784.85)"/></svg>