<svg id="texto" xmlns="http://www.w3.org/2000/svg" viewBox="0 0 76.42 46.61"><title>swag</title><path d="M713.57,1066.37H693.31v-10.73a24.85,24.85,0,0,0-8.65-18.78,1.27,1.27,0,0,0-.26-0.23,26.14,26.14,0,0,0-13.5-6,1.25,1.25,0,0,0,.87-1.18,1.27,1.27,0,0,0-1.28-1.25h-6.15a1.27,1.27,0,0,0-1.28,1.25,1.25,1.25,0,0,0,.87,1.18c-12.64,1.66-22.41,12.23-22.41,25a1.27,1.27,0,0,0,1.28,1.25h8.7a2.3,2.3,0,0,1,2.32,2.26v1.23h-11a1.27,1.27,0,0,0-1.28,1.25v6a1.27,1.27,0,0,0,1.28,1.25h32.68a7.39,7.39,0,0,0,7.32,6h30.77A4.24,4.24,0,1,0,713.57,1066.37Zm-62.08-12h-7.39c0.67-11.94,10.86-21.46,23.3-21.46a23.66,23.66,0,0,1,13.11,3.93,11.17,11.17,0,0,0-8.24,10.66v9.38a1.28,1.28,0,0,0,2.56,0v-9.38a8.72,8.72,0,0,1,8.35-8.59,22.38,22.38,0,0,1,7.55,16.7v10.73h-15.9v-1.48a1.28,1.28,0,0,0-2.56,0v1.48h-15.9v-7.22A4.83,4.83,0,0,0,651.49,1054.4Zm-7.42,8.48h9.75v3.49h-9.75v-3.49Zm69.5,9.48H682.8a4.86,4.86,0,0,1-4.7-3.49h35.47A1.75,1.75,0,1,1,713.57,1072.36Z" transform="translate(-641.51 -1028.24)"/></svg>