<svg id="texto" xmlns="http://www.w3.org/2000/svg" viewBox="0 0 56.81 51.55"><title>tombamento</title><path d="M441.79,1022.52a1.18,1.18,0,0,0-1.62.22,1.1,1.1,0,0,0,.23,1.57l0.3,0.22a9.63,9.63,0,0,1-5.4,3.2,7,7,0,0,1-4.86-1.2l0,0a1.1,1.1,0,0,0,.23-1.57,1.18,1.18,0,0,0-1.62-.22l-2.26,1.65a1.1,1.1,0,0,0-.23,1.57,1.18,1.18,0,0,0,1.62.22l0.3-.22a9.92,9.92,0,0,0,5.88,2.09,8.77,8.77,0,0,0,1.27-.09,12,12,0,0,0,6.9-4.07l0.11,0.08a1.18,1.18,0,0,0,1.62-.22,1.1,1.1,0,0,0-.23-1.57Z" transform="translate(-406.86 -984.11)"/><path d="M434.84,988.75a1.14,1.14,0,0,0-.66-0.57,1.17,1.17,0,0,0-.88.05l-3.54,1.68-0.07,0-0.06,0L417,996a1.11,1.11,0,0,0-.53,1.5l2,4a1.17,1.17,0,0,0,1.54.52,1.11,1.11,0,0,0,.53-1.5l-1.48-3,2-1,1.48,3a1.17,1.17,0,0,0,1.54.52,1.11,1.11,0,0,0,.53-1.5l-1.48-3,2.62-1.25,1.66,3.31a1.17,1.17,0,0,0,1.54.52,1.11,1.11,0,0,0,.53-1.5l-1.66-3.31,1.85-.88,1.48,2.94a1.17,1.17,0,0,0,1.54.52,1.11,1.11,0,0,0,.53-1.5l-1.48-2.94,1.53-.73,1.48,3a1.17,1.17,0,0,0,1.54.52,1.11,1.11,0,0,0,.53-1.5Z" transform="translate(-406.86 -984.11)"/><path d="M463.67,1006.17c0-12.16-12.74-22.06-28.41-22.06s-28.41,9.89-28.41,22.06c0,5.62,4.39,13,8.53,16.78a21.56,21.56,0,0,0,19.87,12.72c7.46,0,15-4.63,18.92-11.53C459.43,1019.87,463.67,1011.87,463.67,1006.17ZM417.5,1008c0-1.06,0-1.94,0-2.59h34.63c0,0.85,0,2.14,0,3.68a18.14,18.14,0,0,0-15.74.82h-2.73V1010l-0.14-.08a18.14,18.14,0,0,0-16-.72V1008Zm22.06,6.47a1.18,1.18,0,0,0,1.63,0l2.58-2.51a1.1,1.1,0,0,0,0-1.59,1.15,1.15,0,0,0-.73-0.31,15.86,15.86,0,0,1,4.61.08,1.16,1.16,0,0,0-.35.23l-4.3,4.19a1.1,1.1,0,0,0,0,1.59,1.18,1.18,0,0,0,1.63,0l4.3-4.19a1.1,1.1,0,0,0,0-1.56,15.48,15.48,0,0,1,3.16,1.16c-0.09,2.9-.81,4.74-3.63,5-4.14.44-7.09-.08-8.76-1.54a4.91,4.91,0,0,1-1.62-3.5,15.53,15.53,0,0,1,4.36-1.39,1.14,1.14,0,0,0-.33.21l-2.58,2.51A1.1,1.1,0,0,0,439.56,1014.51Zm-20.33,0a1.18,1.18,0,0,0,1.63,0l2.58-2.51a1.1,1.1,0,0,0,0-1.59,1.14,1.14,0,0,0-.73-0.31,15.82,15.82,0,0,1,4.61.08,1.16,1.16,0,0,0-.35.23l-4.3,4.19a1.1,1.1,0,0,0,0,1.59,1.18,1.18,0,0,0,1.63,0l4.3-4.19a1.1,1.1,0,0,0,0-1.56,15.45,15.45,0,0,1,3.15,1.15,4.91,4.91,0,0,1-1.62,3.5c-1.67,1.46-4.62,2-8.75,1.54-2.82-.3-3.54-2.13-3.63-5a15.51,15.51,0,0,1,4.37-1.4,1.12,1.12,0,0,0-.33.21l-2.58,2.51A1.1,1.1,0,0,0,419.23,1014.51Zm16,18.92a19.23,19.23,0,0,1-17.76-11.36c0-1.44,0-3.06,0-4.72a6.12,6.12,0,0,0,3.64,1.52,27.16,27.16,0,0,0,2.85.16c3.39,0,6-.76,7.69-2.26a7,7,0,0,0,2.32-4.57h1.85a7,7,0,0,0,2.32,4.57c1.72,1.5,4.3,2.26,7.69,2.26a27.16,27.16,0,0,0,2.85-.16,6.27,6.27,0,0,0,3.4-1.3c0,1.94,0,3.85,0,5.55C448.62,1029.29,441.88,1033.42,435.26,1033.42Zm19.17-29.2a1.14,1.14,0,0,0-1.15-1H416.35a1.14,1.14,0,0,0-1.15,1c0,0.06,0,.06,0,3.8,0,3.07,0,7.55,0,11.45-3.18-3.69-6-9.21-6-13.32,0-10.92,11.71-19.81,26.1-19.81s26.1,8.89,26.1,19.81c0,4.31-3.07,10.6-6.92,14.64C454.44,1015.2,454.44,1004.38,454.43,1004.23Z" transform="translate(-406.86 -984.11)"/></svg>